<svg width="2401" height="478" viewBox="0 0 2401 478" fill="none" xmlns="http://www.w3.org/2000/svg">
<path d="M3.88721 249.474L145.887 181.474L234.887 143.474L280.387 131.974L341.887 88.974L370.387 66.974H389.387L424.887 49.974L431.887 40.974L467.387 9.97401L592.887 44.974L618.887 33.974L661.887 40.974L783.387 64.974L1169.39 152.974L1285.39 121.974L1346.39 82.974L1380.39 78.974L1414.89 68.974L1483.89 94.474L1540.89 86.474L1630.89 82.974L1659.39 78.974L1699.39 82.974L1797.39 128.474L1947.89 73.974L2018.89 67.974H2074.89L2108.89 73.974L2196.89 97.474L2250.39 151.974L2395.89 249.474" stroke="black" stroke-width="18"/>
<path d="M187.267 474.974V348.974H206.797L258.187 432.584L250.357 432.674L299.857 348.974H319.027V474.974H299.317L299.587 375.794L303.457 377.144L260.617 447.794H245.857L202.207 377.144L205.447 375.794L205.717 474.974H187.267ZM446.298 477.674C436.818 477.674 428.028 476.024 419.928 472.724C411.888 469.364 404.868 464.714 398.868 458.774C392.928 452.834 388.278 445.874 384.918 437.894C381.618 429.914 379.968 421.274 379.968 411.974C379.968 402.614 381.618 393.944 384.918 385.964C388.278 377.984 392.928 371.024 398.868 365.084C404.868 359.144 411.888 354.524 419.928 351.224C428.028 347.924 436.818 346.274 446.298 346.274C455.718 346.274 464.448 347.954 472.488 351.314C480.528 354.674 487.548 359.354 493.548 365.354C499.548 371.354 504.198 378.344 507.498 386.324C510.858 394.244 512.538 402.794 512.538 411.974C512.538 421.274 510.858 429.914 507.498 437.894C504.198 445.874 499.548 452.834 493.548 458.774C487.548 464.714 480.528 469.364 472.488 472.724C464.448 476.024 455.718 477.674 446.298 477.674ZM446.298 458.594C452.658 458.594 458.568 457.514 464.028 455.354C469.548 453.134 474.348 449.984 478.428 445.904C482.508 441.764 485.688 436.844 487.968 431.144C490.308 425.384 491.478 418.994 491.478 411.974C491.478 402.554 489.468 394.364 485.448 387.404C481.488 380.384 476.088 374.954 469.248 371.114C462.408 367.274 454.758 365.354 446.298 365.354C439.938 365.354 433.998 366.464 428.478 368.684C423.018 370.844 418.218 373.964 414.078 378.044C409.998 382.124 406.788 387.044 404.448 392.804C402.168 398.504 401.028 404.894 401.028 411.974C401.028 421.394 403.038 429.614 407.058 436.634C411.078 443.594 416.478 448.994 423.258 452.834C430.098 456.674 437.778 458.594 446.298 458.594ZM623.518 477.674C612.298 477.674 602.908 475.394 595.348 470.834C587.848 466.274 582.178 460.094 578.338 452.294C574.558 444.434 572.668 435.614 572.668 425.834V348.974H592.828V425.654C592.828 436.754 595.588 445.034 601.108 450.494C606.628 455.894 614.098 458.594 623.518 458.594C632.938 458.594 640.408 455.894 645.928 450.494C651.448 445.034 654.208 436.754 654.208 425.654V348.974H674.458V425.834C674.458 435.554 672.538 444.344 668.698 452.204C664.918 460.004 659.248 466.214 651.688 470.834C644.188 475.394 634.798 477.674 623.518 477.674ZM742.455 474.974V348.974H761.715L825.345 440.504V348.974H844.965V474.974H825.705L762.165 382.364V474.974H742.455ZM937.746 474.974V367.424H902.286V348.974H993.366V367.424H957.906V474.974H937.746ZM1027.95 474.974L1076.91 348.974H1098.78L1149 474.974H1126.23L1114.62 444.914H1061.25L1050.09 474.974H1027.95ZM1066.47 427.544H1109.22L1087.44 372.644L1066.47 427.544ZM1203.25 474.974V348.974H1223.41V474.974H1203.25ZM1292.33 474.974V348.974H1311.59L1375.22 440.504V348.974H1394.84V474.974H1375.58L1312.04 382.364V474.974H1292.33ZM1522.19 477.674C1512.71 477.674 1503.92 476.024 1495.82 472.724C1487.78 469.364 1480.76 464.714 1474.76 458.774C1468.82 452.834 1464.17 445.874 1460.81 437.894C1457.51 429.914 1455.86 421.274 1455.86 411.974C1455.86 402.614 1457.51 393.944 1460.81 385.964C1464.17 377.984 1468.82 371.024 1474.76 365.084C1480.76 359.144 1487.78 354.524 1495.82 351.224C1503.92 347.924 1512.71 346.274 1522.19 346.274C1531.61 346.274 1540.34 347.954 1548.38 351.314C1556.42 354.674 1563.44 359.354 1569.44 365.354C1575.44 371.354 1580.09 378.344 1583.39 386.324C1586.75 394.244 1588.43 402.794 1588.43 411.974C1588.43 421.274 1586.75 429.914 1583.39 437.894C1580.09 445.874 1575.44 452.834 1569.44 458.774C1563.44 464.714 1556.42 469.364 1548.38 472.724C1540.34 476.024 1531.61 477.674 1522.19 477.674ZM1522.19 458.594C1528.55 458.594 1534.46 457.514 1539.92 455.354C1545.44 453.134 1550.24 449.984 1554.32 445.904C1558.4 441.764 1561.58 436.844 1563.86 431.144C1566.2 425.384 1567.37 418.994 1567.37 411.974C1567.37 402.554 1565.36 394.364 1561.34 387.404C1557.38 380.384 1551.98 374.954 1545.14 371.114C1538.3 367.274 1530.65 365.354 1522.19 365.354C1515.83 365.354 1509.89 366.464 1504.37 368.684C1498.91 370.844 1494.11 373.964 1489.97 378.044C1485.89 382.124 1482.68 387.044 1480.34 392.804C1478.06 398.504 1476.92 404.894 1476.92 411.974C1476.92 421.394 1478.93 429.614 1482.95 436.634C1486.97 443.594 1492.37 448.994 1499.15 452.834C1505.99 456.674 1513.67 458.594 1522.19 458.594ZM1649.28 474.974V348.974H1669.44V456.434H1724.34V474.974H1649.28ZM1836.24 477.674C1826.76 477.674 1817.97 476.024 1809.87 472.724C1801.83 469.364 1794.81 464.714 1788.81 458.774C1782.87 452.834 1778.22 445.874 1774.86 437.894C1771.56 429.914 1769.91 421.274 1769.91 411.974C1769.91 402.614 1771.56 393.944 1774.86 385.964C1778.22 377.984 1782.87 371.024 1788.81 365.084C1794.81 359.144 1801.83 354.524 1809.87 351.224C1817.97 347.924 1826.76 346.274 1836.24 346.274C1845.66 346.274 1854.39 347.954 1862.43 351.314C1870.47 354.674 1877.49 359.354 1883.49 365.354C1889.49 371.354 1894.14 378.344 1897.44 386.324C1900.8 394.244 1902.48 402.794 1902.48 411.974C1902.48 421.274 1900.8 429.914 1897.44 437.894C1894.14 445.874 1889.49 452.834 1883.49 458.774C1877.49 464.714 1870.47 469.364 1862.43 472.724C1854.39 476.024 1845.66 477.674 1836.24 477.674ZM1836.24 458.594C1842.6 458.594 1848.51 457.514 1853.97 455.354C1859.49 453.134 1864.29 449.984 1868.37 445.904C1872.45 441.764 1875.63 436.844 1877.91 431.144C1880.25 425.384 1881.42 418.994 1881.42 411.974C1881.42 402.554 1879.41 394.364 1875.39 387.404C1871.43 380.384 1866.03 374.954 1859.19 371.114C1852.35 367.274 1844.7 365.354 1836.24 365.354C1829.88 365.354 1823.94 366.464 1818.42 368.684C1812.96 370.844 1808.16 373.964 1804.02 378.044C1799.94 382.124 1796.73 387.044 1794.39 392.804C1792.11 398.504 1790.97 404.894 1790.97 411.974C1790.97 421.394 1792.98 429.614 1797 436.634C1801.02 443.594 1806.42 448.994 1813.2 452.834C1820.04 456.674 1827.72 458.594 1836.24 458.594ZM2027.63 477.674C2017.61 477.674 2008.34 476.144 1999.82 473.084C1991.3 470.024 1983.83 465.644 1977.41 459.944C1971.05 454.184 1966.1 447.284 1962.56 439.244C1959.02 431.204 1957.25 422.174 1957.25 412.154C1957.25 402.194 1958.96 393.194 1962.38 385.154C1965.8 377.054 1970.57 370.124 1976.69 364.364C1982.87 358.544 1990.1 354.074 1998.38 350.954C2006.72 347.834 2015.81 346.274 2025.65 346.274C2030.21 346.274 2034.83 346.634 2039.51 347.354C2044.19 348.074 2048.78 349.274 2053.28 350.954C2057.84 352.574 2062.16 354.794 2066.24 357.614L2057.42 373.454C2052.86 370.574 2047.91 368.414 2042.57 366.974C2037.29 365.534 2031.83 364.814 2026.19 364.814C2018.87 364.814 2012.24 365.924 2006.3 368.144C2000.36 370.304 1995.29 373.454 1991.09 377.594C1986.89 381.674 1983.65 386.624 1981.37 392.444C1979.15 398.264 1978.04 404.804 1978.04 412.064C1978.04 422.264 1980.2 430.934 1984.52 438.074C1988.84 445.214 1994.78 450.644 2002.34 454.364C2009.96 458.024 2018.72 459.854 2028.62 459.854C2033.48 459.854 2037.86 459.404 2041.76 458.504C2045.66 457.544 2048.81 456.464 2051.21 455.264V424.844H2022.59V408.104H2069.3V466.964C2066 469.184 2061.86 471.104 2056.88 472.724C2051.96 474.344 2046.86 475.574 2041.58 476.414C2036.36 477.254 2031.71 477.674 2027.63 477.674ZM2161.99 474.974V420.524L2117.53 348.974H2140.57L2172.52 401.084L2204.29 348.974H2226.7L2182.24 420.704V474.974H2161.99Z" fill="black"/>
</svg>
